<?xml version="1.0" encoding="UTF-8" ?>
<!DOCTYPE svg PUBLIC "-//W3C//DTD SVG 1.1//EN" "http://www.w3.org/Graphics/SVG/1.1/DTD/svg11.dtd">
<svg width="119pt" height="112pt" viewBox="0 0 119 112" version="1.1" xmlns="http://www.w3.org/2000/svg">
<g id="#131d47ff">
</g>
<g id="#9aecedff">
<path fill="#9aeced" opacity="1.00" d=" M 21.82 20.83 C 27.36 13.71 35.36 8.70 43.94 6.09 C 41.20 8.27 38.45 10.46 36.05 13.04 C 32.60 16.68 28.27 20.04 27.01 25.15 C 25.78 28.96 26.87 33.44 29.96 36.05 C 33.90 39.75 39.70 40.22 44.82 39.61 C 53.75 38.38 62.34 33.52 67.33 25.91 C 65.93 25.04 64.46 24.29 63.08 23.40 C 68.66 20.99 73.53 17.30 78.74 14.23 C 81.71 21.22 85.11 28.22 86.12 35.84 C 84.69 34.98 83.29 34.07 81.92 33.12 C 76.50 40.61 69.68 47.30 61.14 51.12 C 51.77 55.51 40.81 57.25 30.75 54.38 C 24.45 52.58 18.49 48.12 16.64 41.60 C 14.55 34.33 17.36 26.63 21.82 20.83 Z" />
<path fill="#9aeced" opacity="1.00" d=" M 95.18 22.05 C 98.47 24.60 102.21 26.87 104.60 30.37 C 106.43 40.56 102.37 51.02 95.74 58.70 C 86.33 69.59 72.94 76.37 59.20 80.01 C 47.36 82.82 34.20 83.47 23.03 77.91 C 14.65 73.94 8.38 65.48 8.00 56.09 C 7.86 49.24 8.77 42.16 11.79 35.94 C 10.79 41.47 9.82 47.41 12.24 52.74 C 15.99 61.75 25.70 66.56 34.93 67.75 C 52.20 69.95 69.79 63.05 82.56 51.57 C 90.80 44.21 96.84 33.40 95.18 22.05 Z" />
<path fill="#9aeced" opacity="1.00" d=" M 110.41 41.98 C 112.55 47.72 112.08 53.98 111.88 59.98 C 110.89 67.25 107.11 73.92 102.36 79.39 C 88.38 95.10 66.75 103.31 45.89 101.83 C 37.15 100.72 28.18 97.57 22.14 90.89 C 18.46 86.74 15.04 82.24 12.97 77.06 C 16.68 82.01 21.23 86.53 26.98 89.00 C 37.64 93.46 49.77 93.80 60.88 90.90 C 75.35 87.45 89.56 80.81 99.61 69.58 C 106.29 62.07 111.42 52.31 110.41 41.98 Z" />
<path fill="#9aeced" opacity="1.00" d=" M 93.96 93.00 C 97.72 90.12 100.64 86.35 104.06 83.11 C 97.32 93.79 86.58 101.99 74.38 105.39 C 68.46 107.41 62.12 107.02 55.96 106.93 C 52.25 106.76 48.47 106.49 44.98 105.14 C 52.91 106.47 61.10 106.64 69.00 104.97 C 78.06 102.86 86.59 98.65 93.96 93.00 Z" />
</g>
</svg>
