<?xml version="1.0" encoding="UTF-8" ?>
<!DOCTYPE svg PUBLIC "-//W3C//DTD SVG 1.1//EN" "http://www.w3.org/Graphics/SVG/1.1/DTD/svg11.dtd">
<svg width="554pt" height="118pt" viewBox="0 0 554 118" version="1.1" xmlns="http://www.w3.org/2000/svg">
<g id="#131d47ff">
</g>
<g id="#9aecedff">
<path fill="#9aeced" opacity="1.00" d=" M 18.06 31.15 C 22.92 20.40 33.46 13.23 44.48 9.87 C 41.64 11.85 38.87 13.96 36.54 16.54 C 33.01 20.35 28.42 23.72 27.03 28.99 C 25.80 32.62 26.70 36.92 29.48 39.60 C 32.66 42.96 37.52 43.98 41.98 43.82 C 52.14 43.47 62.01 38.05 67.65 29.58 C 65.94 28.93 64.23 28.30 62.51 27.70 C 68.27 25.20 73.44 21.56 78.66 18.12 C 81.74 25.20 85.12 32.33 86.22 40.05 C 84.70 39.04 83.19 38.03 81.67 37.04 C 72.54 51.67 55.15 60.85 37.90 59.66 C 30.92 59.16 23.55 56.58 19.24 50.78 C 14.99 45.19 15.14 37.30 18.06 31.15 Z" />
<path fill="#9aeced" opacity="1.00" d=" M 95.08 25.86 C 97.88 28.09 100.82 30.17 103.35 32.72 C 105.50 34.49 104.88 37.57 105.00 40.03 C 104.77 51.38 98.16 61.61 89.68 68.73 C 78.24 78.26 63.85 84.11 49.09 85.78 C 38.69 86.83 27.44 85.57 18.74 79.31 C 12.49 74.95 8.37 67.67 8.00 60.04 C 7.61 51.24 9.96 42.49 13.87 34.67 C 11.21 41.38 9.31 49.05 11.97 56.07 C 14.86 63.88 22.49 68.88 30.31 70.82 C 43.32 74.10 57.26 71.16 68.99 65.02 C 77.83 60.38 85.93 53.80 91.13 45.17 C 94.57 39.41 96.11 32.52 95.08 25.86 Z" />
<path fill="#9aeced" opacity="1.00" d=" M 110.36 44.51 C 112.92 55.00 113.41 66.92 107.40 76.39 C 98.68 90.81 83.17 100.10 67.07 104.10 C 56.25 106.58 44.54 107.15 34.07 102.91 C 23.38 98.92 16.27 89.00 11.80 78.94 C 15.82 85.84 22.13 91.68 29.86 94.06 C 40.62 97.85 52.48 97.38 63.34 94.28 C 80.26 89.87 97.03 80.51 105.86 64.88 C 109.58 58.80 111.13 51.58 110.36 44.51 Z" />
<path fill="#9aeced" opacity="1.00" d=" M 41.84 108.20 C 66.24 115.18 94.26 103.64 107.12 81.89 C 100.64 94.93 88.67 105.36 74.58 109.34 C 68.30 111.53 61.55 111.01 55.01 110.91 C 50.49 110.82 46.11 109.59 41.84 108.20 Z" />
</g>
<g id="#5a617eff">
<path fill="#5a617e" opacity="1.00" d=" M 18.29 12.26 C 18.79 12.76 18.79 12.76 18.29 12.26 Z" />
<path fill="#5a617e" opacity="1.00" d=" M 58.32 12.26 C 58.81 12.78 58.81 12.78 58.32 12.26 Z" />
<path fill="#5a617e" opacity="1.00" d=" M 78.29 12.26 C 78.81 12.74 78.81 12.74 78.29 12.26 Z" />
<path fill="#5a617e" opacity="1.00" d=" M 98.28 12.26 C 98.77 12.77 98.77 12.77 98.28 12.26 Z" />
<path fill="#5a617e" opacity="1.00" d=" M 118.31 12.25 C 118.82 12.74 118.82 12.74 118.31 12.25 Z" />
<path fill="#5a617e" opacity="1.00" d=" M 138.24 12.26 C 138.76 12.75 138.76 12.75 138.24 12.26 Z" />
<path fill="#5a617e" opacity="1.00" d=" M 158.25 12.28 C 158.72 12.81 158.72 12.81 158.25 12.28 Z" />
<path fill="#5a617e" opacity="1.00" d=" M 178.31 12.29 C 178.81 12.79 178.81 12.79 178.31 12.29 Z" />
<path fill="#5a617e" opacity="1.00" d=" M 198.31 12.27 C 198.76 12.82 198.76 12.82 198.31 12.27 Z" />
<path fill="#5a617e" opacity="1.00" d=" M 218.28 12.27 C 218.72 12.82 218.72 12.82 218.28 12.27 Z" />
<path fill="#5a617e" opacity="1.00" d=" M 238.26 12.25 C 238.75 12.76 238.75 12.76 238.26 12.25 Z" />
<path fill="#5a617e" opacity="1.00" d=" M 258.26 12.24 C 258.74 12.76 258.74 12.76 258.26 12.24 Z" />
<path fill="#5a617e" opacity="1.00" d=" M 278.23 12.21 C 278.75 12.70 278.75 12.70 278.23 12.21 Z" />
<path fill="#5a617e" opacity="1.00" d=" M 298.24 12.29 C 298.74 12.79 298.74 12.79 298.24 12.29 Z" />
<path fill="#5a617e" opacity="1.00" d=" M 318.26 12.32 C 318.75 12.83 318.75 12.83 318.26 12.32 Z" />
<path fill="#5a617e" opacity="1.00" d=" M 338.29 12.31 C 338.81 12.79 338.81 12.79 338.29 12.31 Z" />
<path fill="#5a617e" opacity="1.00" d=" M 358.21 12.26 C 358.72 12.75 358.72 12.75 358.21 12.26 Z" />
<path fill="#5a617e" opacity="1.00" d=" M 378.30 12.23 C 378.81 12.72 378.81 12.72 378.30 12.23 Z" />
<path fill="#5a617e" opacity="1.00" d=" M 398.23 12.25 C 398.70 12.78 398.70 12.78 398.23 12.25 Z" />
<path fill="#5a617e" opacity="1.00" d=" M 418.26 12.32 C 418.78 12.80 418.78 12.80 418.26 12.32 Z" />
<path fill="#5a617e" opacity="1.00" d=" M 438.25 12.27 C 438.77 12.76 438.77 12.76 438.25 12.27 Z" />
<path fill="#5a617e" opacity="1.00" d=" M 458.24 12.30 C 458.76 12.79 458.76 12.79 458.24 12.30 Z" />
<path fill="#5a617e" opacity="1.00" d=" M 478.26 12.28 C 478.80 12.74 478.80 12.74 478.26 12.28 Z" />
<path fill="#5a617e" opacity="1.00" d=" M 498.29 12.26 C 498.79 12.76 498.79 12.76 498.29 12.26 Z" />
<path fill="#5a617e" opacity="1.00" d=" M 518.30 12.21 C 518.79 12.72 518.79 12.72 518.30 12.21 Z" />
<path fill="#5a617e" opacity="1.00" d=" M 538.27 12.30 C 538.77 12.81 538.77 12.81 538.27 12.30 Z" />
<path fill="#5a617e" opacity="1.00" d=" M 38.26 32.32 C 38.79 32.80 38.79 32.80 38.26 32.32 Z" />
<path fill="#5a617e" opacity="1.00" d=" M 58.24 32.29 C 58.76 32.78 58.76 32.78 58.24 32.29 Z" />
<path fill="#5a617e" opacity="1.00" d=" M 118.22 32.29 C 118.71 32.80 118.71 32.80 118.22 32.29 Z" />
<path fill="#5a617e" opacity="1.00" d=" M 138.26 32.33 C 138.78 32.82 138.78 32.82 138.26 32.33 Z" />
<path fill="#5a617e" opacity="1.00" d=" M 158.27 32.31 C 158.80 32.78 158.80 32.78 158.27 32.31 Z" />
<path fill="#5a617e" opacity="1.00" d=" M 178.27 32.30 C 178.76 32.81 178.76 32.81 178.27 32.30 Z" />
<path fill="#5a617e" opacity="1.00" d=" M 198.31 32.30 C 198.82 32.79 198.82 32.79 198.31 32.30 Z" />
<path fill="#5a617e" opacity="1.00" d=" M 218.27 32.25 C 218.76 32.77 218.76 32.77 218.27 32.25 Z" />
<path fill="#5a617e" opacity="1.00" d=" M 238.29 32.21 C 238.77 32.73 238.77 32.73 238.29 32.21 Z" />
<path fill="#5a617e" opacity="1.00" d=" M 258.30 32.30 C 258.79 32.81 258.79 32.81 258.30 32.30 Z" />
<path fill="#5a617e" opacity="1.00" d=" M 278.26 32.28 C 278.76 32.78 278.76 32.78 278.26 32.28 Z" />
<path fill="#5a617e" opacity="1.00" d=" M 298.21 32.31 C 298.70 32.81 298.70 32.81 298.21 32.31 Z" />
<path fill="#5a617e" opacity="1.00" d=" M 318.32 32.26 C 318.82 32.76 318.82 32.76 318.32 32.26 Z" />
<path fill="#5a617e" opacity="1.00" d=" M 338.26 32.23 C 338.77 32.72 338.77 32.72 338.26 32.23 Z" />
<path fill="#5a617e" opacity="1.00" d=" M 358.26 32.26 C 358.74 32.77 358.74 32.77 358.26 32.26 Z" />
<path fill="#5a617e" opacity="1.00" d=" M 378.26 32.29 C 378.78 32.77 378.78 32.77 378.26 32.29 Z" />
<path fill="#5a617e" opacity="1.00" d=" M 398.26 32.27 C 398.77 32.76 398.77 32.76 398.26 32.27 Z" />
<path fill="#5a617e" opacity="1.00" d=" M 418.29 32.22 C 418.76 32.75 418.76 32.75 418.29 32.22 Z" />
<path fill="#5a617e" opacity="1.00" d=" M 438.27 32.27 C 438.76 32.78 438.76 32.78 438.27 32.27 Z" />
<path fill="#5a617e" opacity="1.00" d=" M 458.28 32.30 C 458.77 32.80 458.77 32.80 458.28 32.30 Z" />
<path fill="#5a617e" opacity="1.00" d=" M 478.24 32.30 C 478.76 32.78 478.76 32.78 478.24 32.30 Z" />
<path fill="#5a617e" opacity="1.00" d=" M 498.29 32.26 C 498.80 32.75 498.80 32.75 498.29 32.26 Z" />
<path fill="#5a617e" opacity="1.00" d=" M 518.30 32.23 C 518.75 32.78 518.75 32.78 518.30 32.23 Z" />
<path fill="#5a617e" opacity="1.00" d=" M 538.29 32.23 C 538.79 32.73 538.79 32.73 538.29 32.23 Z" />
<path fill="#5a617e" opacity="1.00" d=" M 18.25 52.28 C 18.76 52.77 18.76 52.77 18.25 52.28 Z" />
<path fill="#5a617e" opacity="1.00" d=" M 78.24 52.34 C 78.75 52.83 78.75 52.83 78.24 52.34 Z" />
<path fill="#5a617e" opacity="1.00" d=" M 118.29 52.26 C 118.79 52.76 118.79 52.76 118.29 52.26 Z" />
<path fill="#5a617e" opacity="1.00" d=" M 158.24 52.29 C 158.76 52.77 158.76 52.77 158.24 52.29 Z" />
<path fill="#5a617e" opacity="1.00" d=" M 178.30 52.31 C 178.80 52.81 178.80 52.81 178.30 52.31 Z" />
<path fill="#5a617e" opacity="1.00" d=" M 238.24 52.26 C 238.76 52.75 238.76 52.75 238.24 52.26 Z" />
<path fill="#5a617e" opacity="1.00" d=" M 258.31 52.22 C 258.79 52.73 258.79 52.73 258.31 52.22 Z" />
<path fill="#5a617e" opacity="1.00" d=" M 278.30 52.27 C 278.79 52.78 278.79 52.78 278.30 52.27 Z" />
<path fill="#5a617e" opacity="1.00" d=" M 338.28 52.28 C 338.78 52.78 338.78 52.78 338.28 52.28 Z" />
<path fill="#5a617e" opacity="1.00" d=" M 378.24 52.29 C 378.76 52.77 378.76 52.77 378.24 52.29 Z" />
<path fill="#5a617e" opacity="1.00" d=" M 418.27 52.27 C 418.73 52.81 418.73 52.81 418.27 52.27 Z" />
<path fill="#5a617e" opacity="1.00" d=" M 458.31 52.30 C 458.76 52.84 458.76 52.84 458.31 52.30 Z" />
<path fill="#5a617e" opacity="1.00" d=" M 478.31 52.27 C 478.77 52.80 478.77 52.80 478.31 52.27 Z" />
<path fill="#5a617e" opacity="1.00" d=" M 498.28 52.31 C 498.80 52.79 498.80 52.79 498.28 52.31 Z" />
<path fill="#5a617e" opacity="1.00" d=" M 98.27 72.26 C 98.79 72.75 98.79 72.75 98.27 72.26 Z" />
<path fill="#5a617e" opacity="1.00" d=" M 118.31 72.21 C 118.81 72.72 118.81 72.72 118.31 72.21 Z" />
<path fill="#5a617e" opacity="1.00" d=" M 258.24 72.31 C 258.77 72.78 258.77 72.78 258.24 72.31 Z" />
<path fill="#5a617e" opacity="1.00" d=" M 278.28 72.21 C 278.75 72.75 278.75 72.75 278.28 72.21 Z" />
<path fill="#5a617e" opacity="1.00" d=" M 298.31 72.29 C 298.79 72.80 298.79 72.80 298.31 72.29 Z" />
<path fill="#5a617e" opacity="1.00" d=" M 378.29 72.31 C 378.83 72.76 378.83 72.76 378.29 72.31 Z" />
<path fill="#5a617e" opacity="1.00" d=" M 418.33 72.27 C 418.81 72.79 418.81 72.79 418.33 72.27 Z" />
<path fill="#5a617e" opacity="1.00" d=" M 478.24 72.28 C 478.71 72.80 478.71 72.80 478.24 72.28 Z" />
<path fill="#5a617e" opacity="1.00" d=" M 498.28 72.28 C 498.80 72.77 498.80 72.77 498.28 72.28 Z" />
<path fill="#5a617e" opacity="1.00" d=" M 18.28 92.21 C 18.75 92.74 18.75 92.74 18.28 92.21 Z" />
<path fill="#5a617e" opacity="1.00" d=" M 38.29 92.21 C 38.76 92.74 38.76 92.74 38.29 92.21 Z" />
<path fill="#5a617e" opacity="1.00" d=" M 58.22 92.24 C 58.69 92.77 58.69 92.77 58.22 92.24 Z" />
<path fill="#5a617e" opacity="1.00" d=" M 118.28 92.26 C 118.77 92.77 118.77 92.77 118.28 92.26 Z" />
<path fill="#5a617e" opacity="1.00" d=" M 138.27 92.30 C 138.79 92.79 138.79 92.79 138.27 92.30 Z" />
<path fill="#5a617e" opacity="1.00" d=" M 158.30 92.29 C 158.80 92.79 158.80 92.79 158.30 92.29 Z" />
<path fill="#5a617e" opacity="1.00" d=" M 178.27 92.30 C 178.81 92.76 178.81 92.76 178.27 92.30 Z" />
<path fill="#5a617e" opacity="1.00" d=" M 198.26 92.28 C 198.79 92.76 198.79 92.76 198.26 92.28 Z" />
<path fill="#5a617e" opacity="1.00" d=" M 218.25 92.30 C 218.79 92.75 218.79 92.75 218.25 92.30 Z" />
<path fill="#5a617e" opacity="1.00" d=" M 238.33 92.30 C 238.82 92.81 238.82 92.81 238.33 92.30 Z" />
<path fill="#5a617e" opacity="1.00" d=" M 258.24 92.25 C 258.71 92.78 258.71 92.78 258.24 92.25 Z" />
<path fill="#5a617e" opacity="1.00" d=" M 278.21 92.26 C 278.70 92.77 278.70 92.77 278.21 92.26 Z" />
<path fill="#5a617e" opacity="1.00" d=" M 298.26 92.26 C 298.75 92.76 298.75 92.76 298.26 92.26 Z" />
<path fill="#5a617e" opacity="1.00" d=" M 318.25 92.30 C 318.78 92.78 318.78 92.78 318.25 92.30 Z" />
<path fill="#5a617e" opacity="1.00" d=" M 338.29 92.28 C 338.76 92.81 338.76 92.81 338.29 92.28 Z" />
<path fill="#5a617e" opacity="1.00" d=" M 358.34 92.25 C 358.78 92.81 358.78 92.81 358.34 92.25 Z" />
<path fill="#5a617e" opacity="1.00" d=" M 378.27 92.28 C 378.74 92.81 378.74 92.81 378.27 92.28 Z" />
<path fill="#5a617e" opacity="1.00" d=" M 398.30 92.31 C 398.83 92.77 398.83 92.77 398.30 92.31 Z" />
<path fill="#5a617e" opacity="1.00" d=" M 418.28 92.27 C 418.75 92.79 418.75 92.79 418.28 92.27 Z" />
<path fill="#5a617e" opacity="1.00" d=" M 438.22 92.23 C 438.74 92.70 438.74 92.70 438.22 92.23 Z" />
<path fill="#5a617e" opacity="1.00" d=" M 458.25 92.27 C 458.78 92.74 458.78 92.74 458.25 92.27 Z" />
<path fill="#5a617e" opacity="1.00" d=" M 478.28 92.31 C 478.80 92.80 478.80 92.80 478.28 92.31 Z" />
<path fill="#5a617e" opacity="1.00" d=" M 498.25 92.28 C 498.75 92.77 498.75 92.77 498.25 92.28 Z" />
<path fill="#5a617e" opacity="1.00" d=" M 518.26 92.28 C 518.72 92.82 518.72 92.82 518.26 92.28 Z" />
<path fill="#5a617e" opacity="1.00" d=" M 538.24 92.29 C 538.79 92.73 538.79 92.73 538.24 92.29 Z" />
<path fill="#5a617e" opacity="1.00" d=" M 18.29 112.21 C 18.80 112.70 18.80 112.70 18.29 112.21 Z" />
<path fill="#5a617e" opacity="1.00" d=" M 38.22 112.30 C 38.74 112.78 38.74 112.78 38.22 112.30 Z" />
<path fill="#5a617e" opacity="1.00" d=" M 58.24 112.26 C 58.74 112.76 58.74 112.76 58.24 112.26 Z" />
<path fill="#5a617e" opacity="1.00" d=" M 78.28 112.28 C 78.79 112.77 78.79 112.77 78.28 112.28 Z" />
<path fill="#5a617e" opacity="1.00" d=" M 98.25 112.27 C 98.75 112.77 98.75 112.77 98.25 112.27 Z" />
<path fill="#5a617e" opacity="1.00" d=" M 118.25 112.27 C 118.75 112.78 118.75 112.78 118.25 112.27 Z" />
<path fill="#5a617e" opacity="1.00" d=" M 138.25 112.27 C 138.75 112.77 138.75 112.77 138.25 112.27 Z" />
<path fill="#5a617e" opacity="1.00" d=" M 158.24 112.30 C 158.71 112.82 158.71 112.82 158.24 112.30 Z" />
<path fill="#5a617e" opacity="1.00" d=" M 178.32 112.27 C 178.81 112.78 178.81 112.78 178.32 112.27 Z" />
<path fill="#5a617e" opacity="1.00" d=" M 198.28 112.23 C 198.79 112.72 198.79 112.72 198.28 112.23 Z" />
<path fill="#5a617e" opacity="1.00" d=" M 218.26 112.29 C 218.79 112.75 218.79 112.75 218.26 112.29 Z" />
<path fill="#5a617e" opacity="1.00" d=" M 238.30 112.24 C 238.81 112.73 238.81 112.73 238.30 112.24 Z" />
<path fill="#5a617e" opacity="1.00" d=" M 258.32 112.25 C 258.82 112.75 258.82 112.75 258.32 112.25 Z" />
<path fill="#5a617e" opacity="1.00" d=" M 278.33 112.26 C 278.79 112.79 278.79 112.79 278.33 112.26 Z" />
<path fill="#5a617e" opacity="1.00" d=" M 298.28 112.25 C 298.78 112.75 298.78 112.75 298.28 112.25 Z" />
<path fill="#5a617e" opacity="1.00" d=" M 318.21 112.29 C 318.71 112.79 318.71 112.79 318.21 112.29 Z" />
<path fill="#5a617e" opacity="1.00" d=" M 338.28 112.26 C 338.76 112.79 338.76 112.79 338.28 112.26 Z" />
<path fill="#5a617e" opacity="1.00" d=" M 358.23 112.32 C 358.73 112.81 358.73 112.81 358.23 112.32 Z" />
<path fill="#5a617e" opacity="1.00" d=" M 378.27 112.30 C 378.79 112.78 378.79 112.78 378.27 112.30 Z" />
<path fill="#5a617e" opacity="1.00" d=" M 398.30 112.25 C 398.77 112.77 398.77 112.77 398.30 112.25 Z" />
<path fill="#5a617e" opacity="1.00" d=" M 418.32 112.22 C 418.79 112.74 418.79 112.74 418.32 112.22 Z" />
<path fill="#5a617e" opacity="1.00" d=" M 438.21 112.22 C 438.72 112.70 438.72 112.70 438.21 112.22 Z" />
<path fill="#5a617e" opacity="1.00" d=" M 458.30 112.23 C 458.78 112.74 458.78 112.74 458.30 112.23 Z" />
<path fill="#5a617e" opacity="1.00" d=" M 478.26 112.32 C 478.76 112.82 478.76 112.82 478.26 112.32 Z" />
<path fill="#5a617e" opacity="1.00" d=" M 498.24 112.28 C 498.72 112.80 498.72 112.80 498.24 112.28 Z" />
<path fill="#5a617e" opacity="1.00" d=" M 518.24 112.25 C 518.76 112.73 518.76 112.73 518.24 112.25 Z" />
<path fill="#5a617e" opacity="1.00" d=" M 538.25 112.30 C 538.77 112.78 538.77 112.78 538.25 112.30 Z" />
</g>
<g id="#f1f1f1ff">
<path fill="#f1f1f1" opacity="1.00" d=" M 225.45 38.63 C 234.13 36.66 244.08 39.10 249.95 46.04 C 257.11 54.12 256.93 67.61 249.48 75.45 C 243.21 82.39 232.79 84.47 223.98 81.97 C 216.72 79.99 210.45 74.20 208.49 66.86 C 206.74 60.38 207.66 53.03 211.64 47.53 C 214.89 42.95 219.97 39.78 225.45 38.63 M 226.40 47.43 C 218.08 50.36 215.25 61.70 220.22 68.67 C 224.04 74.50 232.58 76.06 238.45 72.49 C 245.21 68.87 246.82 59.28 243.06 52.95 C 239.83 47.31 232.34 45.16 226.40 47.43 Z" />
<path fill="#f1f1f1" opacity="1.00" d=" M 363.00 39.98 C 370.37 36.97 379.15 37.32 386.20 41.03 C 385.15 43.64 384.12 46.27 383.10 48.89 C 378.12 46.26 371.51 45.37 366.60 48.60 C 363.51 50.76 363.56 54.87 363.41 58.25 C 369.41 58.22 375.42 58.34 381.43 58.17 C 381.51 60.95 381.51 63.72 381.50 66.50 C 375.50 66.50 369.50 66.50 363.50 66.50 C 363.50 71.75 363.50 77.00 363.50 82.25 C 360.16 82.25 356.84 82.25 353.51 82.26 C 353.54 73.01 353.40 63.75 353.56 54.50 C 353.61 48.38 357.24 42.31 363.00 39.98 Z" />
<path fill="#f1f1f1" opacity="1.00" d=" M 443.48 38.74 C 452.16 36.63 462.22 38.87 468.24 45.74 C 475.39 53.56 475.56 66.58 468.72 74.64 C 461.00 84.09 445.98 85.51 435.98 78.97 C 427.32 73.62 424.05 61.94 427.50 52.57 C 430.01 45.62 436.34 40.40 443.48 38.74 M 444.45 47.66 C 438.15 50.08 435.16 57.59 436.72 63.92 C 437.95 71.26 446.03 75.83 453.07 74.08 C 461.09 72.70 465.40 63.35 462.91 55.98 C 460.90 48.31 451.51 44.44 444.45 47.66 Z" />
<path fill="#f1f1f1" opacity="1.00" d=" M 135.24 38.75 C 138.66 38.75 142.08 38.75 145.49 38.75 C 145.52 47.51 145.48 56.27 145.50 65.04 C 145.51 67.79 146.16 70.85 148.42 72.65 C 153.29 76.47 162.28 73.96 162.55 67.12 C 163.03 57.68 162.60 48.20 162.75 38.75 C 166.08 38.75 169.42 38.75 172.76 38.75 C 172.77 46.83 172.71 54.90 172.77 62.97 C 172.95 65.79 172.95 68.89 174.67 71.28 C 178.56 76.56 188.98 75.05 189.83 68.00 C 190.78 58.31 189.99 48.50 190.24 38.75 C 193.66 38.75 197.08 38.75 200.50 38.75 C 200.40 47.79 200.72 56.83 200.32 65.86 C 200.18 71.84 197.39 78.17 191.73 80.81 C 184.15 84.26 174.27 83.88 167.83 78.21 C 161.57 83.68 152.22 84.20 144.74 81.18 C 139.10 78.84 135.71 72.91 135.47 66.95 C 134.98 57.56 135.38 48.15 135.24 38.75 Z" />
<path fill="#f1f1f1" opacity="1.00" d=" M 262.75 38.75 C 269.49 38.78 276.24 38.69 282.98 38.78 C 288.70 38.90 294.76 41.09 298.10 45.98 C 303.11 53.38 300.23 64.95 291.62 68.23 C 294.79 72.95 298.11 77.57 301.34 82.25 C 297.79 82.25 294.23 82.23 290.68 82.32 C 287.69 78.30 284.93 74.12 282.08 70.00 C 278.97 70.00 275.86 70.00 272.75 70.00 C 272.75 74.09 272.75 78.17 272.74 82.26 C 269.41 82.25 266.08 82.25 262.75 82.25 C 262.75 67.75 262.74 53.25 262.75 38.75 M 272.75 47.01 C 272.75 52.00 272.75 57.00 272.75 61.99 C 277.21 61.71 281.92 62.76 286.20 61.17 C 291.70 59.14 291.74 49.88 286.22 47.87 C 281.92 46.29 277.22 47.24 272.75 47.01 Z" />
<path fill="#f1f1f1" opacity="1.00" d=" M 308.51 82.26 C 308.49 67.75 308.49 53.25 308.51 38.75 C 311.83 38.75 315.16 38.75 318.49 38.75 C 318.45 45.52 318.62 52.30 318.45 59.08 C 324.94 52.33 331.28 45.43 337.84 38.74 C 341.50 38.76 345.17 38.74 348.84 38.76 C 342.97 45.36 336.76 51.63 330.91 58.24 C 337.39 66.14 343.64 74.24 349.98 82.27 C 346.05 82.25 342.13 82.27 338.20 82.22 C 333.65 76.48 328.92 70.88 324.37 65.14 C 322.45 67.17 320.48 69.16 318.52 71.16 C 318.53 74.86 318.49 78.55 318.49 82.25 C 315.16 82.25 311.83 82.25 308.51 82.26 Z" />
<path fill="#f1f1f1" opacity="1.00" d=" M 392.00 38.75 C 395.42 38.75 398.83 38.75 402.25 38.75 C 402.25 50.50 402.26 62.25 402.25 73.99 C 409.50 74.01 416.75 74.00 424.00 74.00 C 424.00 76.75 424.00 79.50 424.00 82.25 C 413.33 82.25 402.67 82.25 392.00 82.25 C 392.00 67.75 392.00 53.25 392.00 38.75 Z" />
<path fill="#f1f1f1" opacity="1.00" d=" M 481.00 38.75 C 484.33 38.75 487.66 38.75 491.00 38.75 C 491.03 47.17 490.96 55.59 491.02 64.01 C 491.08 67.36 491.66 71.41 494.88 73.22 C 498.33 75.02 503.19 74.88 506.05 72.02 C 508.27 69.61 508.38 66.11 508.50 63.01 C 508.52 54.92 508.48 46.84 508.51 38.75 C 511.83 38.75 515.16 38.75 518.49 38.75 C 518.49 46.51 518.56 54.28 518.48 62.05 C 518.45 65.49 518.52 69.33 520.92 72.06 C 525.30 76.37 534.85 74.71 535.51 67.86 C 536.56 58.21 535.74 48.45 536.00 38.75 C 539.33 38.75 542.66 38.75 546.00 38.75 C 545.95 47.87 546.09 56.99 545.95 66.11 C 545.82 72.11 542.83 78.40 537.15 80.93 C 529.60 84.19 519.81 83.92 513.53 78.14 C 506.17 84.53 494.02 84.70 486.44 78.66 C 482.57 75.31 481.11 70.00 481.03 65.05 C 480.95 56.28 481.02 47.52 481.00 38.75 Z" />
</g>
</svg>
