<svg class="img-fluid" id="outputsvg" xmlns="http://www.w3.org/2000/svg" style="transform: matrix(1, 0, 0, 1, 0, 0); transform-origin: 50% 50% 0px; cursor: move; max-height: 355.54px;" width="554" height="118" viewBox="0 0 5540 1180"><g id="l2dogXmRFfaURGNZBAynHXI" style="transform: none;" fill="rgba(0,0,0,0)"><g><path id="paVBoqOr5" d="M0 590 l0 -590 2770 0 2770 0 0 590 0 590 -2770 0 -2770 0 0 -590z m618 424 c130 -27 267 -97 332 -170 l25 -28 -33 27 c-99 80 -327 156 -476 158 l-81 1 40 13 c54 18 102 18 193 -1z m1 -223 c215 -72 372 -221 396 -376 6 -32 3 -44 -13 -58 -19 -17 -19 -17 -25 23 -17 130 -156 266 -345 338 -61 24 -81 26 -212 27 -131 0 -150 -2 -195 -23 -27 -13 -61 -33 -74 -45 -22 -20 -23 -20 -13 -2 33 59 100 110 179 136 79 26 184 19 302 -20z m1003 -22 c34 -24 68 -24 110 0 55 32 97 35 147 9 78 -40 86 -59 89 -219 3 -135 3 -139 -17 -139 -20 0 -21 5 -21 149 0 135 -2 151 -21 175 -19 24 -26 26 -94 26 -68 0 -75 -2 -94 -26 -19 -24 -21 -40 -21 -175 0 -141 -1 -149 -19 -149 -18 0 -20 10 -23 156 -3 150 -4 157 -27 175 -17 14 -39 19 -88 19 -35 0 -73 -5 -83 -10 -29 -16 -40 -73 -40 -212 0 -124 -1 -128 -21 -128 -21 0 -21 3 -17 128 4 135 13 166 61 210 48 45 125 50 179 11z m751 15 c56 -19 121 -86 138 -143 16 -53 -6 -113 -59 -162 -20 -19 -27 -23 -16 -9 36 42 44 66 44 135 0 122 -45 165 -173 165 -74 0 -79 -1 -115 -34 l-37 -34 0 -97 0 -97 38 -35 39 -35 88 4 c48 1 86 0 84 -3 -2 -3 -23 -12 -47 -18 -108 -31 -247 73 -247 184 0 71 66 152 147 181 49 17 61 17 116 -2z m2212 -11 c66 -33 117 -107 117 -168 0 -85 -83 -171 -183 -190 -77 -14 -190 65 -216 150 -14 44 -1 96 34 143 62 82 161 109 248 65z m481 2 c61 -31 75 -31 139 1 59 28 99 27 154 -7 54 -33 71 -85 71 -226 0 -115 -1 -123 -19 -123 -18 0 -20 10 -23 154 -4 193 -6 196 -114 196 -114 0 -124 -19 -124 -232 0 -98 -3 -118 -15 -118 -12 0 -15 20 -15 118 -1 137 -11 201 -36 219 -11 8 -46 13 -89 13 -107 0 -109 -4 -113 -196 -3 -144 -5 -154 -23 -154 -18 0 -19 8 -19 113 0 169 23 223 105 252 55 19 65 19 121 -10z m-2366 -45 l0 -60 74 0 c69 0 76 2 95 26 l21 27 0 -32 c0 -24 9 -41 34 -65 46 -43 55 -80 30 -125 -31 -58 -89 -81 -201 -81 l-93 0 0 185 c0 178 1 185 20 185 18 0 20 -7 20 -60z m453 4 c7 -72 34 -104 88 -104 36 0 43 6 105 80 36 44 68 80 70 80 3 0 -27 -40 -66 -89 -49 -62 -70 -98 -70 -117 l0 -28 -28 27 c-20 19 -39 27 -65 27 l-37 0 0 -95 c0 -78 -3 -95 -15 -95 -13 0 -15 27 -15 185 0 149 3 185 14 185 9 0 15 -18 19 -56z m449 -21 l3 -78 88 -3 c116 -4 113 -22 -4 -22 l-92 0 6 -62 c10 -90 32 -108 135 -108 60 0 73 -3 64 -12 -7 -7 -36 -12 -65 -12 -63 0 -112 25 -144 74 -21 30 -23 45 -23 166 0 111 3 134 15 134 11 0 15 -18 17 -77z m608 67 c0 -6 -43 -10 -110 -10 l-110 0 0 -175 c0 -168 -1 -175 -20 -175 -19 0 -20 7 -20 185 l0 185 130 0 c80 0 130 -4 130 -10z m-3674 -242 c80 -27 159 -82 209 -146 22 -28 45 -51 52 -51 15 -1 -14 -91 -29 -91 -5 0 -23 8 -39 17 -21 12 -29 25 -29 45 0 36 -59 93 -130 126 -72 34 -191 42 -254 18 -51 -20 -73 -48 -82 -106 -8 -46 -17 -40 -34 22 -28 101 102 208 235 192 22 -3 67 -14 101 -26z"></path><path id="psTc9TirC" d="M4399 755 c-40 -21 -61 -61 -66 -126 -4 -43 -1 -72 12 -105 24 -64 60 -84 153 -84 126 0 166 40 166 165 0 81 -19 127 -64 150 -38 19 -165 20 -201 0z"></path><path id="p1CoYeRv6i" d="M2700 545 l0 -105 86 0 c81 0 120 10 136 34 4 6 8 38 8 71 0 33 -4 65 -8 71 -16 24 -55 34 -136 34 l-86 0 0 -105z"></path></g></g><g id="lcUx3aOGvrR3KgXgmdrkqn" fill="rgb(240,240,240)" style="transform: none;"><g><path id="psGImasqa" d="M1466 820 c-16 -5 -40 -19 -53 -32 -51 -47 -57 -73 -61 -240 l-4 -158 51 0 51 0 0 128 c0 139 11 196 40 212 30 16 86 12 111 -9 23 -18 24 -25 27 -175 l3 -156 50 0 49 0 0 149 c0 135 2 151 21 175 16 21 29 26 64 26 35 0 48 -5 64 -26 19 -24 21 -40 21 -175 l0 -149 51 0 50 0 -3 169 c-3 194 -8 207 -89 249 -36 19 -55 23 -106 19 -37 -3 -76 -13 -95 -24 -33 -20 -34 -20 -60 0 -29 22 -135 32 -182 17z"></path><path id="p106sZlXu9" d="M2227 816 c-57 -21 -103 -61 -127 -111 -31 -65 -26 -165 13 -223 75 -113 251 -135 358 -44 162 139 58 394 -160 392 -25 -1 -63 -7 -84 -14z m160 -96 c64 -39 83 -128 40 -191 -29 -43 -60 -59 -120 -59 -40 0 -53 5 -85 34 -36 33 -37 37 -37 101 0 64 1 68 37 101 32 29 45 34 85 34 30 0 60 -7 80 -20z"></path><path id="pGBEnmjdO" d="M4418 816 c-85 -31 -132 -85 -150 -168 -31 -148 90 -278 247 -266 135 11 219 97 219 223 0 90 -40 157 -119 197 -50 26 -147 33 -197 14z m152 -91 c37 -19 63 -68 63 -120 0 -82 -52 -135 -133 -135 -60 0 -98 24 -122 77 -31 69 -9 145 51 178 34 19 105 19 141 0z"></path><path id="pgWwepaxv" d="M4915 815 c-48 -17 -80 -52 -94 -103 -6 -20 -11 -101 -11 -179 l0 -143 49 0 50 0 3 154 c3 135 5 157 22 175 22 24 91 29 120 8 25 -18 37 -94 35 -222 l-2 -110 47 -3 46 -3 2 63 c1 35 0 81 -1 103 -5 67 9 141 30 164 27 29 98 29 125 0 17 -18 19 -40 22 -175 l3 -154 50 0 49 0 0 153 c0 139 -2 157 -22 197 -29 56 -72 81 -151 87 -51 4 -70 1 -107 -19 l-45 -23 -45 23 c-51 25 -115 28 -175 7z"></path><path id="p17kMf2kxq" d="M2630 605 l0 -215 123 0 c142 0 193 17 227 72 39 64 22 163 -36 205 l-26 19 47 67 47 67 -54 0 -54 0 -40 -57 c-37 -55 -41 -58 -87 -61 l-47 -3 0 60 0 61 -50 0 -50 0 0 -215z m233 4 c29 -16 37 -28 37 -64 0 -55 -31 -75 -114 -75 l-56 0 0 75 0 75 56 0 c30 0 65 -5 77 -11z"></path><path id="prHdSVa5b" d="M3090 816 c0 -4 -1 -99 -1 -213 l0 -208 46 -3 45 -3 2 63 c1 35 2 78 2 96 0 17 2 32 5 32 3 0 47 -43 96 -96 l90 -95 54 3 55 3 -88 92 -88 93 91 115 c50 63 91 117 91 120 0 3 -24 5 -54 5 l-54 0 -66 -80 c-37 -44 -70 -80 -75 -80 -4 0 -18 11 -31 25 -17 18 -24 37 -25 77 l-2 53 -46 3 c-26 2 -47 1 -47 -2z"></path><path id="p1405zWvgR" d="M3540 816 c-3 -2 -3 -79 0 -169 5 -182 12 -201 77 -239 56 -33 185 -36 227 -5 16 11 16 15 1 50 -13 32 -18 36 -35 27 -10 -5 -41 -10 -69 -10 -59 0 -96 27 -105 78 l-5 32 89 0 c99 0 90 -6 94 66 1 13 -14 16 -89 17 l-90 2 0 75 -1 75 -45 3 c-25 2 -47 1 -49 -2z"></path><path id="pHk1YdzlX" d="M3920 605 l0 -215 50 0 50 0 0 175 0 175 110 0 110 0 0 40 0 40 -160 0 -160 0 0 -215z"></path></g></g><g id="l79UrS1IyuwR47gQ83vSNrB" fill="rgb(255,85,94)" style="transform: none;"><g><path id="pa3Rk65dR" d="M600 1099 c146 -11 260 -59 372 -155 42 -37 39 -33 -14 20 -109 106 -211 147 -362 145 l-91 -2 95 -8z"></path><path id="pc5Ubc9v3" d="M369 1037 c-95 -33 -161 -89 -223 -192 -15 -25 -10 -22 30 16 60 58 97 76 182 95 95 20 146 17 258 -11 267 -66 461 -237 484 -423 l6 -57 8 38 c15 69 2 177 -28 236 -34 66 -112 151 -187 201 -157 107 -380 148 -530 97z"></path><path id="psG8I8aXX" d="M287 841 c-146 -48 -216 -149 -204 -295 3 -39 10 -82 16 -96 8 -21 10 -16 10 33 1 96 49 164 146 209 43 20 65 23 165 22 98 0 125 -4 182 -26 96 -36 173 -84 238 -149 69 -68 102 -133 109 -216 l6 -63 49 42 48 42 -4 66 c-13 177 -164 332 -402 412 -120 40 -270 48 -359 19z"></path><path id="pzF3EWiCK" d="M327 590 c-56 -14 -90 -35 -125 -74 -73 -84 -48 -213 61 -313 40 -37 133 -93 154 -93 4 0 -22 30 -59 68 -75 76 -90 101 -90 147 0 138 232 151 365 21 42 -42 45 -52 17 -61 -17 -5 -7 -15 57 -54 l78 -47 14 25 c17 31 61 160 61 179 0 12 -4 11 -20 -3 -20 -18 -21 -18 -37 5 -84 119 -221 196 -366 205 -40 2 -89 0 -110 -5z"></path></g></g></svg>